HIERARCHY
ROOT pelvis
{
  OFFSET 0 100 0
  CHANNELS 6 Xposition Yposition Zposition Zrotation Xrotation Yrotation
  JOINT pelvis_right_femur
  {
    OFFSET -10.78128 -3.44521 -0.5502486
    CHANNELS 3 Zrotation Xrotation Yrotation
    JOINT right_femur_tibia
    {
      OFFSET -0.8047443 -44.0398 -0.1307829
      CHANNELS 3 Zrotation Xrotation Yrotation
      JOINT right_tibia_foot
      {
        OFFSET 3.006224 -47.83518 -5
        CHANNELS 3 Zrotation Xrotation Yrotation
        End Site
        {
          OFFSET 0 -5 15
        }
      }
    }
  }
  JOINT pelvis_left_femur
  {
    OFFSET 10.78128 -3.44521 -0.5502486
    CHANNELS 3 Zrotation Xrotation Yrotation
    JOINT left_femur_tibia
    {
      OFFSET 0.8047443 -44.0398 -0.1307829
      CHANNELS 3 Zrotation Xrotation Yrotation
      JOINT left_tibia_foot
      {
        OFFSET -4.370144 -48.10324 -4.275266
        CHANNELS 3 Zrotation Xrotation Yrotation
        End Site
        {
          OFFSET 0 -5 15
        }
      }
    }
  }
  JOINT pelvis_spine1
  {
    OFFSET 0 6.468898 -3.129235
    CHANNELS 3 Zrotation Xrotation Yrotation
    JOINT spine1
    {
      OFFSET 0 23.15396 4.99043
      CHANNELS 3 Zrotation Xrotation Yrotation
      JOINT spine2
      {
        OFFSET 0 20.79997 -5.064912
        CHANNELS 3 Zrotation Xrotation Yrotation
        JOINT neck
        {
          OFFSET 0 14.38658 9.616178
          CHANNELS 3 Zrotation Xrotation Yrotation
          End Site
          {
            OFFSET 0 20 0
          }
        }
      }
      JOINT right_manubrium
      {
        OFFSET -5.722621 16.35077 3.967754
        CHANNELS 3 Zrotation Xrotation Yrotation
        JOINT right_clavicle
        {
          OFFSET -13.16364 1.694482 -4.693211
          CHANNELS 3 Zrotation Xrotation Yrotation
          JOINT right_humerus
          {
            OFFSET -28.5034 -0.3100689 -2.792744
            CHANNELS 3 Zrotation Xrotation Yrotation
            JOINT right_radius
            {
              OFFSET -25.15693 0.02248979 -1.271978
              CHANNELS 3 Zrotation Xrotation Yrotation
              End Site
              {
                OFFSET -15 0 0
              }
            }
          }
        }
      }
      JOINT left_manubrium
      {
        OFFSET 5.722621 16.35077 3.967754
        CHANNELS 3 Zrotation Xrotation Yrotation
        JOINT left_clavicle
        {
          OFFSET 13.16364 1.694482 -4.693211
          CHANNELS 3 Zrotation Xrotation Yrotation
          JOINT left_humerus
          {
            OFFSET 29.39168 -1.063119 -2.237045
            CHANNELS 3 Zrotation Xrotation Yrotation
            JOINT left_radius
            {
              OFFSET 24.59957 -0.9528479 0.9047498
              CHANNELS 3 Zrotation Xrotation Yrotation
              End Site
              {
                OFFSET 15 -0 -0
              }
            }
          }
        }
      }
    }
  }
}
MOTION
Frames: 21
Frame Time: 0.0416666666667
-201.4939 101.8072 2827.882 -1.929937 -0.8702417 -21.16489 7.580555 -23.45092 0.1403086 -0 11.43993 -0 -10.5303 3.362786 -1.061398 -4.129654 12.56535 -8.350116 -0 40.62168 -0 -0.5359627 -11.36145 11.61278 1.34144 -3.233608 5.059141 -0.5926706 13.63251 -6.21655 2.043426 21.78503 4.719471 0.8434999 -19.95804 7.339319 -4.60358 -21.50186 9.953129 98.79612 17.17769 -22.92981 -0 0 6.73494 -21.31753 9.788237 12.13396 3.358435 -29.01894 -8.812168 -84.39103 17.54172 16.51533 0 0 -35.73231 6.075418 10.57785 13.55879
-204.0117 102.9148 2833.791 -2.614032 -1.935505 -21.65605 8.170272 -18.67892 1.255578 -0 13.70847 -0 -11.29865 1.206993 -1.609881 -3.340813 8.346007 -7.946608 -0 49.67907 -0 -0.985355 -7.838411 11.3617 1.405671 -3.206613 5.332741 -0.6479778 13.95059 -6.099647 2.017711 21.59313 4.434542 0.6516609 -19.83162 7.114227 -4.553369 -22.28767 10.07008 98.36862 17.13469 -21.99313 -0 0 8.207254 -21.46621 10.22702 12.64594 3.038228 -28.48345 -8.858539 -85.16587 17.33144 18.41248 0 0 -34.30973 5.491809 10.35742 14.24286
-206.3963 104.2549 2839.409 -2.923582 -3.174627 -22.41548 7.98406 -13.30649 1.820101 -0 14.23089 -0 -11.89333 -1.338648 -1.886056 -2.727013 2.679496 -7.475992 -0 56.76111 -0 -0.9953294 -5.325058 11.56061 1.50776 -3.185305 5.720554 -0.7638852 14.33466 -5.915543 1.995051 21.29453 4.045944 0.3958151 -19.58957 6.814676 -4.463055 -23.31615 10.16243 97.75782 17.16261 -20.73303 -0 0 10.22007 -21.66153 10.86114 13.35796 2.633461 -27.81537 -8.912809 -86.14015 17.03096 20.90386 0 0 -32.6302 4.708334 9.954659 15.31664
-208.6315 105.5453 2844.675 -2.782797 -4.268444 -23.24026 7.248999 -7.702528 1.928305 -0 13.1286 -0 -12.24317 -3.781239 -1.837414 -2.193088 -3.780959 -6.755165 -0 60.14433 -0 -0.5634288 -4.108751 12.15782 1.633903 -3.170326 6.196777 -0.9329433 14.75304 -5.674034 1.976982 20.90108 3.575305 0.09935241 -19.2411 6.455911 -4.330289 -24.51973 10.21818 96.96839 17.26817 -19.19957 -0 0 12.68072 -21.89488 11.67618 14.22305 2.188403 -27.04479 -8.963821 -87.25339 16.63777 23.81176 0 0 -30.80516 3.793393 9.393716 16.67683
-210.7391 106.5141 2849.629 -2.395599 -5.035922 -23.9441 6.41649 -2.247178 1.817198 -0 11.25799 -0 -12.28155 -5.887671 -1.574541 -1.410662 -10.2285 -5.708582 -0 58.65426 -0 0.0726705 -3.903073 13.03583 1.757635 -3.153208 6.724263 -1.134626 15.16741 -5.387927 1.963432 20.44359 3.050203 -0.2150464 -18.82559 6.060876 -4.164584 -25.82891 10.23253 96.00483 17.42968 -17.4283 -0 0 15.48372 -22.15952 12.62461 15.18562 1.749254 -26.17548 -8.990115 -88.4699 16.18031 26.96018 0 0 -28.85228 2.814391 8.72111 18.17905
-212.7375 106.9526 2854.383 -2.090374 -5.407969 -24.44903 5.877316 2.689387 1.694161 -0 9.555729 -0 -11.96007 -7.860655 -1.267085 -0.10334 -15.93137 -4.382834 -0 52.20779 -0 0.5899347 -4.089863 13.99519 1.845197 -3.123465 7.260082 -1.338685 15.53283 -5.073046 1.953285 19.96508 2.506058 -0.5268908 -18.41113 5.660605 -3.9924 -27.1782 10.20515 94.88208 17.59592 -15.45014 -0 0 18.51129 -22.45152 13.6239 16.18902 1.361888 -25.19998 -8.959839 -89.77635 15.71162 30.18534 0 0 -26.72575 1.83154 8.000662 19.66232
-214.6303 106.7803 2859.097 -2.08605 -5.363639 -24.787 5.759557 6.819058 1.654752 -0 8.620525 -0 -11.30476 -10.07142 -1.011442 1.67778 -20.33235 -2.9282 -0 42.09887 -0 0.7990329 -4.106247 14.78866 1.865879 -3.077246 7.760211 -1.511176 15.80413 -4.750812 1.944983 19.51201 1.987832 -0.8157367 -18.08071 5.291751 -3.854087 -28.50123 10.14003 93.64526 17.69878 -13.3246 -0 0 21.61284 -22.7668 14.56721 17.17534 1.068149 -24.12921 -8.840413 -91.15628 15.28983 33.31864 0 0 -24.39253 0.902812 7.31274 20.96488
-216.4257 106.0797 2863.946 -2.381885 -4.944189 -25.053 5.914573 10.02071 1.681378 -0 8.651656 -0 -10.46841 -12.62641 -0.7829032 3.510059 -23.11534 -1.606508 -0 30.69845 -0 0.7266567 -3.70698 15.25148 1.802192 -3.020384 8.182449 -1.622083 15.94654 -4.448558 1.937467 19.12883 1.546644 -1.06001 -17.90902 4.99176 -3.791522 -29.72215 10.0471 92.38325 17.67844 -11.16898 -0 0 24.584 -23.09625 15.34248 18.08322 0.8971836 -23.01341 -8.613676 -92.56146 14.96373 36.16995 0 0 -21.89502 0.08796669 6.750073 21.9415
-218.1535 105.0569 2869.084 -2.810005 -4.299786 -25.35238 6.042743 12.40172 1.663433 -0 9.532158 -0 -9.703176 -15.17275 -0.4925302 4.811971 -24.28958 -0.7662314 -0 20.52933 -0 0.5019343 -3.012995 15.42154 1.655116 -2.962776 8.48989 -1.652895 15.9457 -4.194265 1.930949 18.85562 1.229126 -1.240565 -17.93953 4.792438 -3.831689 -30.75591 9.942325 91.21988 17.50965 -9.154576 -0 0 27.17605 -23.4219 15.85402 18.85051 0.8550667 -21.93692 -8.287347 -93.90543 14.77084 38.5417 0 0 -19.35778 -0.5572351 6.398034 22.49093
-219.8631 103.9462 2874.601 -3.163983 -3.679908 -25.76378 5.855819 14.27947 1.445837 -0 10.97252 -0 -9.250142 -17.04504 -0.07339128 5.156539 -24.1782 -0.7276758 -0 13.24601 -0 0.1841116 -2.375189 15.52828 1.443007 -2.90867 8.657778 -1.602019 15.81228 -4.007333 1.926654 18.72339 1.063437 -1.346957 -18.17152 4.712527 -3.974411 -31.52421 9.844591 90.27914 17.21343 -7.462918 -0 0 29.15096 -23.71761 16.04281 19.42383 0.9214273 -20.98945 -7.895582 -95.08719 14.73825 40.2765 0 0 -16.94499 -0.9944591 6.301669 22.58531
-221.6116 102.9296 2880.52 -3.306424 -3.357996 -26.31529 5.185151 16.04484 0.922176 -0 12.73729 -0 -9.236955 -17.55363 0.4886264 4.439864 -23.23261 -1.664536 -0 9.231906 -0 -0.2884653 -2.154876 15.84802 1.19511 -2.852634 8.681435 -1.484912 15.57849 -3.8921 1.925626 18.74524 1.050367 -1.380402 -18.56223 4.751531 -4.191275 -31.9791 9.770426 89.64161 16.84651 -6.226379 -0 0 30.35811 -23.95563 15.90278 19.77133 1.058726 -20.23485 -7.487978 -96.02652 14.87566 41.30557 0 0 -14.80823 -1.214196 6.444738 22.27822
-223.4511 102.1178 2886.8 -3.207628 -3.546028 -26.96677 4.006947 17.95396 0.1219091 -0 14.87665 -0 -9.660585 -16.17514 1.181848 2.82674 -21.79002 -3.563811 -0 7.963028 -0 -0.9955562 -2.55918 16.53373 0.9421483 -2.785323 8.577665 -1.327152 15.28753 -3.839956 1.927856 18.90993 1.165554 -1.351145 -19.04306 4.889453 -4.437379 -32.11694 9.729575 89.32221 16.47529 -5.493139 -0 0 30.77845 -24.11601 15.48397 19.89034 1.228607 -19.6983 -7.113395 -96.68344 15.16736 41.65832 0 0 -13.05679 -1.236381 6.76287 21.67859
-225.4156 101.5802 2893.358 -2.929887 -4.337692 -27.60688 2.42189 19.9488 -0.774551 -0 17.8107 -0 -10.44403 -12.62101 1.994725 0.6304339 -19.94994 -6.221721 -0 8.621081 -0 -1.905094 -3.588806 17.53451 0.708605 -2.701912 8.376293 -1.154175 14.9815 -3.838073 1.932493 19.18643 1.371209 -1.273578 -19.54233 5.09464 -4.668825 -31.97126 9.724131 89.28441 16.15212 -5.238478 -0 0 30.50179 -24.19125 14.87409 19.80297 1.403318 -19.37555 -6.807989 -97.05247 15.57599 41.42686 0 0 -11.75631 -1.099007 7.179255 20.90651
-227.5061 101.382 2900.082 -2.596517 -5.671186 -28.07921 0.6410237 21.583 -1.508268 -0 22.17719 -0 -11.50293 -6.937087 2.907827 -1.742782 -17.62336 -9.236873 -0 10.44103 -0 -2.834078 -5.054358 18.63749 0.510725 -2.605507 8.108316 -0.9842572 14.69454 -3.877799 1.938513 19.53595 1.629017 -1.162593 -20.00216 5.334364 -4.854545 -31.59206 9.751419 89.47527 15.90655 -5.406844 -0 0 29.66156 -24.1831 14.16936 19.54177 1.566815 -19.2525 -6.593412 -97.14228 16.05491 40.71482 0 0 -10.948 -0.8421314 7.633276 20.05965
-229.681 101.5956 2906.826 -2.360477 -7.305878 -28.24314 -1.012091 22.10451 -1.874242 -0 28.44029 -0 -12.76918 0.2963688 3.863997 -3.829523 -14.68822 -12.05454 -0 12.73436 -0 -3.514559 -6.634614 19.58644 0.359596 -2.506328 7.799308 -0.8274699 14.45361 -3.958575 1.945038 19.92061 1.906825 -1.032084 -20.38251 5.58072 -4.978225 -31.02906 9.807894 89.85319 15.74954 -5.949787 -0 0 28.38138 -24.09639 13.45613 19.13713 1.70987 -19.32195 -6.482524 -96.95695 16.55597 39.60452 0 0 -10.67466 -0.4966603 8.089001 19.20328
-231.8598 102.2703 2913.402 -2.359524 -8.855235 -28.04763 -2.146133 20.74239 -1.839738 -0 36.35933 -0 -14.14962 7.837632 4.733748 -5.227235 -11.144 -14.13227 -0 14.82481 -0 -3.722025 -8.008658 20.20139 0.2649232 -2.419971 7.469953 -0.6884612 14.28108 -4.086675 1.951187 20.30483 2.179667 -0.8945318 -20.65806 5.811363 -5.035745 -30.32778 9.890655 90.39573 15.68017 -6.838059 -0 0 26.76063 -23.93644 12.80617 18.61419 1.826046 -19.58948 -6.4844 -96.49109 17.02914 38.15477 0 0 -10.99382 -0.08160566 8.528814 18.37761
-233.9449 103.3703 2919.604 -2.648001 -9.922715 -27.56047 -2.47451 17.1398 -1.539313 -0 44.62906 -0 -15.44511 14.03605 5.293215 -5.775287 -7.174466 -15.17964 -0 16.10723 -0 -3.408394 -9.048908 20.42848 0.2357963 -2.364565 7.139477 -0.5703444 14.19256 -4.268945 1.955889 20.65504 2.430593 -0.759629 -20.81613 6.009831 -5.033179 -29.53196 9.995349 91.09137 15.68933 -8.049826 -0 0 24.88517 -23.71065 12.27229 17.99725 1.912189 -20.06761 -6.603074 -95.74118 17.42339 36.4171 0 0 -11.96492 0.3921748 8.941119 17.6114
-235.8566 104.7318 2925.274 -3.135946 -10.28785 -26.91577 -2.021781 11.64528 -1.161276 -0 51.14303 -0 -16.3428 17.52179 5.284946 -5.640321 -3.096532 -15.28828 -0 16.23498 -0 -2.757768 -9.935002 20.30064 0.2778022 -2.355404 6.826823 -0.4779719 14.18883 -4.503788 1.958226 20.94356 2.653738 -0.6312912 -20.85666 6.168216 -4.984456 -28.68152 10.1123 91.92509 15.76264 -9.550298 -0 0 22.83731 -23.43111 11.87784 17.31424 1.972229 -20.76219 -6.831484 -94.72413 17.69697 34.44988 0 0 -13.61536 0.9157124 9.309741 16.93354
-237.5648 106.09 2930.362 -3.608563 -9.991527 -26.23524 -1.118225 5.148545 -0.8875035 -0 53.94474 -0 -16.58126 17.87228 4.614612 -5.196284 0.7548571 -14.82346 -0 15.24982 -0 -2.094042 -11.04034 19.87133 0.388379 -2.398672 6.547259 -0.4187946 14.24868 -4.775146 1.958323 21.1562 2.856601 -0.5053554 -20.79142 6.290341 -4.906583 -27.80394 10.2242 92.86701 15.88562 -11.27893 -0 0 20.69192 -23.11498 11.6083 16.59636 2.019879 -21.65921 -7.14684 -93.48758 17.83393 32.31705 0 0 -15.90634 1.477622 9.611352 16.37555
-239.0969 107.1637 2934.937 -3.844327 -9.245346 -25.60038 -0.1716191 -1.440229 -0.8947902 -0 52.19907 -0 -16.11985 15.70975 3.48977 -4.796822 4.137355 -14.17807 -0 13.50895 -0 -1.679387 -12.65476 19.19614 0.5536263 -2.488551 6.306774 -0.4000446 14.3303 -5.055036 1.958043 21.29704 3.057258 -0.3712466 -20.64242 6.391638 -4.814701 -26.90816 10.30788 93.87093 16.04865 -13.15167 -0 0 18.50669 -22.78228 11.41605 15.87371 2.076596 -22.71959 -7.512282 -92.10347 17.85387 30.07601 0 0 -18.72 2.065139 9.822892 15.96139
-240.5204 107.7398 2939.15 -3.731985 -8.267065 -25.06215 0.5487568 -7.594768 -1.296862 -0 46.44035 -0 -15.09325 12.24579 2.287023 -4.627987 6.953209 -13.59589 -0 11.4907 -0 -1.554347 -14.78485 18.35892 0.7494216 -2.609963 6.09956 -0.4237015 14.38263 -5.313934 1.96077 21.38545 3.275963 -0.217945 -20.44036 6.494107 -4.720949 -25.99023 10.34025 94.88208 16.24731 -15.07347 -0 0 16.3221 -22.45299 11.23937 15.17048 2.1653 -23.88366 -7.883902 -90.65081 17.80485 27.7698 0 0 -21.87381 2.66918 9.934538 15.68954
